<?xml version="1.0" standalone="no"?>
<!DOCTYPE svg PUBLIC "-//W3C//DTD SVG 20010904//EN"
 "http://www.w3.org/TR/2001/REC-SVG-20010904/DTD/svg10.dtd">
<svg version="1.0" xmlns="http://www.w3.org/2000/svg"
 width="880.000000pt" height="916.000000pt" viewBox="0 0 880.000000 916.000000"
 preserveAspectRatio="xMidYMid meet">

<g transform="translate(0.000000,916.000000) scale(0.100000,-0.100000)"
fill="#000000" stroke="none">
<path d="M4255 6629 c-10 -10 -14 -20 -9 -20 9 -2 84 -5 84 -3 0 0 -13 10 -29
22 -29 21 -29 21 -46 1z m25 -9 c0 -5 -8 -10 -17 -10 -15 0 -16 2 -3 10 19 12
20 12 20 0z"/>
<path d="M4437 6596 c-11 -11 -37 -14 -103 -12 -49 2 -65 1 -36 -1 94 -7 54
-18 -81 -21 -72 -2 -133 -8 -135 -13 -5 -13 -70 -11 -74 3 -3 7 -14 9 -31 4
-18 -4 -24 -11 -21 -21 6 -15 -6 -20 -35 -15 -12 1 -13 -1 -2 -14 11 -13 9
-13 -19 -3 -24 9 -33 9 -39 -1 -5 -8 -19 -11 -37 -7 -23 4 -25 3 -9 -4 34 -16
-7 -13 -55 4 -24 8 -45 13 -48 10 -3 -3 0 -5 6 -5 7 0 12 -11 12 -23 0 -29
-41 -52 -60 -34 -10 9 -11 9 -5 -2 6 -11 2 -13 -21 -8 l-29 6 29 -13 c27 -12
33 -11 72 12 30 18 39 29 31 35 -7 4 7 5 30 2 24 -4 58 -2 76 4 25 9 42 9 63
1 33 -13 74 -48 74 -64 0 -6 -5 -4 -10 4 -8 12 -10 10 -10 -11 0 -31 -33 -63
-81 -78 -50 -16 -79 -43 -79 -74 0 -20 6 -28 26 -33 40 -10 127 2 177 25 56
25 72 26 128 4 30 -11 74 -17 136 -18 78 0 96 -3 121 -22 16 -12 45 -26 63
-30 26 -7 35 -15 37 -35 2 -20 -3 -28 -28 -38 -26 -11 -40 -10 -88 3 -99 28
-143 30 -177 7 -16 -11 -38 -20 -48 -20 -44 0 -107 -71 -107 -119 0 -34 34
-42 164 -42 112 1 125 -1 147 -20 44 -40 87 -51 159 -44 66 7 143 -6 155 -25
3 -5 1 -19 -5 -30 -15 -28 1 -47 51 -60 22 -6 39 -14 39 -18 0 -19 65 -72 93
-77 22 -4 39 -18 54 -40 17 -26 32 -36 60 -40 57 -9 83 -23 83 -42 0 -10 5
-35 11 -56 9 -34 18 -42 65 -63 48 -21 58 -31 76 -71 12 -27 23 -78 26 -118 4
-57 9 -75 30 -97 43 -46 32 -91 -39 -173 -28 -32 -36 -35 -83 -35 -41 0 -57
-5 -79 -25 -24 -23 -26 -31 -21 -68 4 -23 13 -54 20 -69 8 -15 14 -48 14 -74
0 -39 -5 -51 -34 -80 -28 -28 -41 -34 -77 -34 -36 0 -47 -6 -78 -39 -30 -32
-44 -39 -88 -44 -61 -7 -77 3 -93 62 -20 77 -71 111 -140 96 -17 -4 -55 -29
-86 -57 -49 -46 -57 -50 -79 -40 -13 6 -36 29 -50 52 -14 22 -33 40 -43 40
-10 0 -39 -13 -65 -30 -56 -36 -70 -37 -108 -9 -23 16 -29 28 -29 58 0 31 7
44 40 75 68 63 53 114 -47 166 -33 17 -43 28 -43 46 0 13 -9 29 -20 36 -29 18
-25 39 15 86 34 40 38 41 93 40 36 -1 68 5 87 15 49 27 96 22 147 -17 83 -64
78 -126 -11 -126 -96 0 -155 -83 -98 -139 12 -12 46 -40 76 -61 42 -30 66 -40
115 -45 33 -4 74 -14 90 -22 36 -19 68 -11 126 32 25 18 61 40 81 48 31 13 37
20 41 53 3 22 0 49 -6 61 -13 26 -77 78 -128 104 -24 12 -40 29 -44 46 -6 23
0 33 45 72 87 78 66 121 -85 173 -108 37 -148 38 -240 8 -82 -27 -121 -22
-130 15 -8 31 2 45 30 45 13 0 36 10 52 23 25 19 40 22 124 22 56 0 104 5 117
13 33 18 48 15 93 -23 35 -29 50 -35 91 -35 42 0 55 -5 103 -45 49 -40 114
-75 137 -75 5 0 9 10 9 21 0 13 -27 47 -70 88 -38 37 -70 73 -70 80 0 21 -52
61 -80 61 -15 0 -46 15 -71 33 -69 53 -87 60 -135 52 -35 -5 -51 -2 -78 14
-21 14 -50 21 -81 21 -41 0 -53 -5 -98 -45 -29 -25 -57 -45 -63 -45 -6 0 -23
9 -37 20 -14 11 -32 17 -41 14 -11 -4 -20 5 -32 35 -18 46 -35 54 -108 52 -90
-1 -154 -27 -180 -70 -5 -9 -24 -31 -43 -49 -32 -33 -33 -34 -98 -27 -77 9
-88 2 -135 -81 -17 -30 -31 -54 -33 -54 -1 0 -17 -4 -34 -9 -32 -9 -33 -9 -43
29 -11 39 -25 50 -65 50 -61 0 -149 -66 -194 -146 -17 -31 -32 -43 -59 -50
-48 -12 -102 -81 -102 -130 0 -52 -24 -101 -59 -118 -50 -26 -67 -81 -36 -122
8 -10 15 -34 15 -52 0 -82 50 -135 129 -139 25 -1 49 -2 53 -2 4 -1 19 -18 33
-39 l25 -39 -21 -51 c-14 -34 -19 -60 -15 -78 10 -38 61 -82 104 -90 20 -3 54
-17 74 -30 32 -21 46 -23 90 -18 36 4 67 1 98 -10 52 -18 103 -20 131 -6 46
25 8 65 -87 91 -39 11 -75 28 -88 42 -13 14 -33 28 -44 32 -23 7 -29 29 -12
40 6 3 10 22 10 40 0 30 -6 39 -40 60 -29 18 -40 32 -40 49 0 43 18 73 49 84
38 13 55 45 47 88 -5 22 -1 44 9 64 14 26 21 30 58 30 63 0 177 -43 210 -80
40 -44 36 -70 -14 -102 -26 -17 -38 -39 -58 -115 -7 -24 -16 -43 -21 -43 -18
0 -40 -32 -40 -58 1 -61 84 -112 181 -112 55 0 64 -3 90 -31 25 -27 29 -39 29
-90 0 -48 4 -61 20 -71 24 -15 25 -35 5 -62 -8 -11 -15 -26 -15 -33 0 -23 80
-101 126 -123 39 -20 50 -21 110 -11 42 6 80 20 103 36 45 31 67 31 124 4 75
-37 127 -14 215 94 19 24 27 27 56 21 49 -9 98 18 126 69 28 50 36 57 73 57
37 0 62 14 115 62 73 67 110 33 46 -43 -20 -24 -45 -62 -56 -84 -13 -26 -39
-53 -78 -79 -32 -22 -65 -52 -74 -68 -10 -16 -42 -41 -77 -59 -98 -49 -161
-98 -157 -123 3 -19 10 -21 59 -21 47 0 66 6 117 38 33 20 69 37 80 37 12 0
41 18 66 39 28 24 67 46 100 55 34 10 73 32 101 56 26 22 61 46 78 54 36 15
74 50 108 101 13 19 32 38 42 41 27 9 83 61 107 99 11 18 27 70 35 115 13 73
20 89 61 138 48 59 48 57 24 142 -15 55 -2 115 35 157 27 32 42 25 59 -29 15
-43 40 -58 63 -35 13 13 18 39 21 111 5 114 -4 147 -68 235 -53 74 -66 107
-75 201 -5 50 -15 77 -40 115 -34 51 -42 59 -108 109 -28 21 -41 42 -52 81
-17 58 -42 85 -129 140 -68 43 -112 47 -175 16 -53 -27 -73 -26 -110 5 -36 30
-88 40 -131 25 -69 -24 -143 48 -107 103 20 30 64 40 115 27 51 -14 72 -6 79
30 3 16 7 29 10 29 9 0 91 -45 130 -71 44 -31 100 -38 121 -17 19 19 14 70
-13 113 -44 72 -57 106 -45 119 11 14 56 10 77 -6 7 -5 18 -6 24 -2 7 4 9 3 6
-3 -7 -11 45 -53 67 -53 30 0 30 52 -1 114 -12 23 -17 26 -25 15 -7 -10 -8 -9
-4 7 4 14 -2 28 -18 43 -22 21 -25 21 -40 5 -9 -9 -20 -14 -23 -10 -4 3 2 13
13 22 13 11 15 17 7 20 -7 3 -13 12 -13 20 0 8 -4 14 -10 14 -6 0 -9 -5 -8
-11 2 -6 -3 -14 -11 -17 -8 -3 -11 0 -7 7 5 7 -3 11 -21 11 -16 0 -41 11 -58
26 -16 14 -37 23 -47 21 -10 -3 -16 -2 -13 3 3 4 -4 10 -15 13 -11 3 -18 2
-15 -3 4 -6 -30 -6 -64 -1 -2 1 3 9 10 18 12 15 12 16 -3 10 -10 -3 -18 -2
-18 3 0 6 5 10 10 10 6 0 10 5 10 10 0 21 -19 8 -29 -20 -11 -33 -22 -37 -41
-15 -16 19 -32 19 -68 -2 -26 -15 -34 -15 -73 -3 -24 8 -53 13 -63 12 -11 -1
-17 0 -13 4 8 8 -42 49 -71 58 -12 4 -20 11 -18 15 9 14 -73 11 -87 -3z m74
-5 c15 -2 16 -41 1 -53 -13 -11 -15 -10 -9 5 5 13 0 20 -19 27 -27 11 -25 30
4 25 9 -2 20 -4 23 -4z m59 -36 c0 -9 -6 -12 -16 -8 -13 5 -13 7 -2 14 17 11
18 11 18 -6z m-193 -11 c-3 -3 -12 -4 -19 -1 -8 3 -5 6 6 6 11 1 17 -2 13 -5z
m213 -14 c-8 -5 -22 -9 -30 -9 -10 0 -8 3 5 9 27 12 43 12 25 0z m-243 -6 c-3
-3 -12 -4 -19 -1 -8 3 -5 6 6 6 11 1 17 -2 13 -5z m-367 -24 c-12 -12 -26 -18
-32 -14 -7 5 -5 12 7 21 30 21 48 16 25 -7z m733 -37 c-7 -2 -19 -2 -25 0 -7
3 -2 5 12 5 14 0 19 -2 13 -5z m431 -67 c-10 -8 -21 -12 -23 -10 -3 2 4 11 15
18 10 8 21 12 23 10 3 -2 -4 -11 -15 -18z m60 -22 c3 -8 2 -12 -4 -9 -6 3 -10
10 -10 16 0 14 7 11 14 -7z m56 -68 c0 -2 -7 -9 -15 -16 -13 -11 -14 -10 -9 4
5 14 24 23 24 12z m10 -26 c0 -5 -5 -10 -11 -10 -5 0 -7 5 -4 10 3 6 8 10 11
10 2 0 4 -4 4 -10z"/>
<path d="M4895 6580 c-3 -5 -1 -10 4 -10 6 0 11 5 11 10 0 6 -2 10 -4 10 -3 0
-8 -4 -11 -10z"/>
<path d="M4950 6570 c0 -5 7 -7 15 -4 8 4 15 8 15 10 0 2 -7 4 -15 4 -8 0 -15
-4 -15 -10z"/>
<path d="M4915 6560 c-3 -5 -1 -10 4 -10 6 0 11 5 11 10 0 6 -2 10 -4 10 -3 0
-8 -4 -11 -10z"/>
<path d="M4985 6560 c-3 -5 -2 -10 4 -10 5 0 13 5 16 10 3 6 2 10 -4 10 -5 0
-13 -4 -16 -10z"/>
<path d="M5028 6553 c6 -2 18 -2 25 0 6 3 1 5 -13 5 -14 0 -19 -2 -12 -5z"/>
<path d="M4950 6542 c0 -4 14 -9 32 -10 37 -3 35 2 -4 12 -16 3 -28 3 -28 -2z"/>
<path d="M5085 6530 c3 -5 8 -10 11 -10 2 0 4 5 4 10 0 6 -5 10 -11 10 -5 0
-7 -4 -4 -10z"/>
<path d="M3758 6508 c5 -5 16 -8 23 -6 8 3 3 7 -10 11 -17 4 -21 3 -13 -5z"/>
<path d="M3690 6465 c-7 -8 -8 -15 -2 -15 5 0 15 7 22 15 7 8 8 15 2 15 -5 0
-15 -7 -22 -15z"/>
<path d="M5120 6459 c0 -5 5 -7 10 -4 6 3 10 8 10 11 0 2 -4 4 -10 4 -5 0 -10
-5 -10 -11z"/>
<path d="M3610 6417 c14 -13 31 -22 38 -19 15 5 16 4 -28 26 l-35 17 25 -24z"/>
<path d="M3518 6418 c6 -6 18 -8 28 -6 14 3 12 5 -9 10 -19 3 -25 2 -19 -4z"/>
<path d="M3536 6401 c-32 -5 -55 -15 -66 -29 -10 -11 -21 -18 -24 -14 -4 3 -4
-2 0 -12 5 -14 4 -17 -4 -12 -11 7 -72 -43 -72 -59 0 -12 65 37 100 76 32 36
39 39 93 40 35 1 53 5 45 10 -7 5 -15 8 -18 8 -3 -1 -27 -5 -54 -8z"/>
<path d="M5421 6297 c-12 -35 -8 -49 33 -109 22 -34 14 -48 -29 -48 -33 0 -46
-13 -38 -38 3 -6 10 -9 15 -6 7 4 8 2 4 -4 -8 -14 46 -127 76 -159 31 -34 55
-37 84 -14 36 28 50 26 66 -6 9 -19 22 -29 41 -31 33 -4 44 -23 53 -93 8 -67
19 -89 44 -89 38 0 52 42 54 154 1 95 -1 107 -22 133 -12 15 -34 52 -48 81
-32 66 -42 63 -12 -4 12 -27 22 -67 24 -89 1 -38 1 -39 -10 -14 -6 14 -16 24
-22 22 -18 -6 -36 45 -23 68 6 12 8 23 6 26 -3 2 -8 -5 -12 -16 -11 -36 -47
-26 -69 19 -11 22 -23 40 -28 40 -4 0 -8 9 -8 20 0 14 -7 20 -22 20 -57 0 -65
4 -61 25 4 16 3 17 -6 5 -9 -12 -11 -11 -11 7 0 22 -32 48 -44 36 -3 -3 -6 -1
-6 6 0 7 -4 10 -9 7 -5 -3 -11 3 -14 14 -3 11 -1 18 3 15 5 -3 11 -1 15 5 3 5
1 10 -5 10 -7 0 -9 8 -5 20 3 11 4 20 1 20 -2 0 -9 -15 -15 -33z m374 -328
c-3 -4 -1 -9 3 -11 4 -1 2 -14 -5 -28 l-13 -25 -1 25 c0 14 -2 39 -4 55 -4 28
-3 29 10 11 8 -10 12 -22 10 -27z m-131 -25 c3 -8 2 -12 -4 -9 -6 3 -10 10
-10 16 0 14 7 11 14 -7z m156 -24 c0 -5 -4 -10 -10 -10 -5 0 -10 5 -10 10 0 6
5 10 10 10 6 0 10 -4 10 -10z m-59 -43 c-10 -9 -11 -8 -5 6 3 10 9 15 12 12 3
-3 0 -11 -7 -18z m40 -19 c-3 -21 -6 -26 -9 -15 -3 17 3 47 11 47 2 0 1 -15
-2 -32z m-14 -100 c-3 -8 -6 -5 -6 6 -1 11 2 17 5 13 3 -3 4 -12 1 -19z"/>
<path d="M3254 6282 c-10 -15 -13 -15 -28 -3 -14 12 -16 12 -10 -3 8 -21 40
-21 48 0 9 23 3 27 -10 6z"/>
<path d="M3320 6270 c-13 -9 -13 -10 0 -10 8 0 22 5 30 10 13 9 13 10 0 10 -8
0 -22 -5 -30 -10z"/>
<path d="M3277 6259 c7 -7 15 -10 18 -7 3 3 -2 9 -12 12 -14 6 -15 5 -6 -5z"/>
<path d="M2905 6110 c-3 -5 -1 -10 4 -10 6 0 11 5 11 10 0 6 -2 10 -4 10 -3 0
-8 -4 -11 -10z"/>
<path d="M5696 6105 c-9 -26 -7 -32 5 -12 6 10 9 21 6 23 -2 3 -7 -2 -11 -11z"/>
<path d="M6015 5919 c-4 -6 -5 -12 -2 -15 2 -3 7 2 10 11 7 17 1 20 -8 4z"/>
<path d="M3740 5894 c-27 -12 -54 -14 -115 -9 -78 6 -81 6 -127 -25 -38 -25
-54 -30 -78 -25 -57 13 -85 -2 -148 -80 -51 -61 -69 -76 -112 -90 -37 -12 -54
-14 -64 -6 -19 16 -6 74 29 139 23 43 26 54 15 67 -7 8 -20 15 -29 15 -22 -1
-52 -25 -43 -35 4 -5 1 -5 -6 -1 -12 7 -73 -29 -81 -47 -2 -5 -33 -22 -69 -38
-36 -16 -75 -40 -87 -52 -12 -12 -38 -37 -59 -56 -20 -18 -34 -36 -30 -40 3
-3 13 5 22 18 9 13 33 34 54 47 21 14 36 29 33 33 -2 5 3 12 12 15 10 4 14 4
10 0 -4 -4 -2 -13 5 -21 6 -7 9 -14 7 -16 -2 -1 -13 -7 -24 -13 -11 -6 -22
-22 -23 -35 -2 -13 -12 -32 -23 -42 -10 -10 -19 -22 -19 -27 0 -6 -6 -10 -12
-10 -7 0 -23 -21 -35 -45 -27 -53 -27 -55 -8 -55 8 0 15 -8 15 -18 0 -24 -35
-56 -50 -47 -14 9 -50 -23 -50 -43 0 -13 3 -12 16 4 15 19 16 19 9 -1 -5 -17
-1 -15 23 8 15 15 31 25 34 22 7 -8 58 15 84 38 12 10 24 36 28 57 4 25 14 43
26 50 11 6 18 15 15 20 -3 6 0 7 8 4 8 -3 18 -1 22 5 3 6 15 11 27 11 18 0 19
-4 13 -37 -13 -73 -12 -143 2 -163 14 -19 16 -19 41 -4 15 9 39 33 54 54 18
26 44 47 78 61 32 14 69 42 100 76 33 36 62 58 87 65 21 6 61 25 89 43 92 59
110 65 221 74 60 5 141 19 182 31 61 18 79 20 100 10 43 -20 163 -24 185 -7
44 33 -13 71 -129 88 -41 5 -100 19 -132 30 -31 10 -57 19 -57 19 -1 -1 -17
-8 -36 -16z m-705 -84 c3 -6 -1 -7 -9 -4 -18 7 -21 14 -7 14 6 0 13 -4 16 -10z
m-30 -40 c3 -5 -1 -10 -10 -10 -9 0 -13 5 -10 10 3 6 8 10 10 10 2 0 7 -4 10
-10z m-76 -29 c9 -6 4 -10 -18 -13 -31 -4 -43 6 -18 15 18 8 21 8 36 -2z m-49
-81 c0 -5 -5 -10 -11 -10 -5 0 -7 5 -4 10 3 6 8 10 11 10 2 0 4 -4 4 -10z
m-55 -130 c3 -5 1 -10 -4 -10 -6 0 -11 5 -11 10 0 6 2 10 4 10 3 0 8 -4 11
-10z m2 -52 c-3 -8 -6 -5 -6 6 -1 11 2 17 5 13 3 -3 4 -12 1 -19z m-127 -92
c0 -3 -4 -8 -10 -11 -5 -3 -10 -1 -10 4 0 6 5 11 10 11 6 0 10 -2 10 -4z"/>
<path d="M5996 5705 c4 -8 8 -15 10 -15 2 0 4 7 4 15 0 8 -4 15 -10 15 -5 0
-7 -7 -4 -15z"/>
<path d="M6020 5649 c0 -5 -5 -7 -11 -3 -8 5 -8 1 0 -14 14 -27 14 -75 0 -89
-14 -14 -13 -96 1 -123 14 -25 20 -80 9 -80 -5 0 -12 -12 -15 -27 -4 -16 -13
-41 -21 -56 -8 -15 -16 -40 -18 -55 -2 -15 -8 -40 -14 -55 -6 -16 -11 -67 -11
-114 0 -71 -5 -101 -31 -172 -17 -47 -36 -98 -41 -113 -14 -38 -34 -35 -59 7
-16 27 -27 35 -50 35 -38 0 -56 -30 -99 -160 -25 -75 -48 -118 -96 -186 -59
-82 -64 -93 -64 -141 0 -49 -2 -53 -46 -89 -25 -21 -56 -56 -69 -79 -31 -53
-187 -202 -249 -238 -101 -58 -10 -70 99 -12 41 21 81 35 103 35 64 0 78 9
117 76 38 65 42 68 108 79 43 7 63 31 81 102 18 69 46 123 62 123 30 0 36 -43
27 -197 -8 -140 -10 -151 -36 -184 -15 -20 -27 -41 -27 -47 0 -29 -53 -118
-112 -188 -47 -57 -77 -81 -118 -101 -39 -18 -69 -43 -104 -85 -27 -33 -77
-81 -112 -107 -47 -36 -60 -51 -52 -59 7 -7 23 -12 37 -12 37 0 193 69 216 96
21 23 89 56 99 47 2 -3 21 20 41 51 37 59 64 76 118 76 31 1 72 22 61 32 -2 3
2 8 11 12 11 4 14 2 10 -7 -4 -6 5 2 20 18 28 32 28 40 10 175 -5 38 -2 50 17
73 20 25 34 30 95 37 77 8 91 13 113 44 16 23 17 28 25 146 3 47 13 102 21
123 27 71 34 123 22 159 -14 40 -24 48 -64 48 -82 0 -88 62 -17 173 26 39 59
85 74 100 14 16 34 47 44 70 27 67 45 99 87 155 37 50 43 68 11 37 -25 -25
-38 -12 -41 43 -2 29 -7 52 -12 52 -4 0 -11 39 -15 87 -5 57 -14 98 -27 120
-17 29 -18 33 -4 33 9 0 16 5 16 11 0 16 -24 36 -37 32 -6 -2 -17 5 -23 16 -8
17 -8 21 3 21 10 0 13 14 13 50 -1 45 -2 47 -14 27 l-13 -22 7 24 c4 16 3 21
-5 17 -6 -4 -11 -19 -11 -34 l-1 -27 -13 25 c-8 14 -12 28 -10 32 3 5 1 8 -4
8 -12 0 -4 39 12 59 8 11 8 13 -1 7 -9 -5 -13 0 -13 18 0 13 -3 31 -6 40 -3 9
-1 16 4 16 6 0 13 -10 15 -22 3 -17 5 -14 6 10 1 22 -3 32 -14 32 -8 0 -15 -5
-15 -11z m20 -227 c0 -15 -2 -15 -10 -2 -13 20 -13 33 0 25 6 -3 10 -14 10
-23z m13 -32 c-3 -12 -8 -19 -11 -16 -5 6 5 36 12 36 2 0 2 -9 -1 -20z m137
-441 c0 -5 -4 -9 -10 -9 -5 0 -10 7 -10 16 0 8 5 12 10 9 6 -3 10 -10 10 -16z
m-20 -29 c0 -5 -5 -10 -11 -10 -5 0 -7 5 -4 10 3 6 8 10 11 10 2 0 4 -4 4 -10z
m-33 -6 c-3 -3 -12 -4 -19 -1 -8 3 -5 6 6 6 11 1 17 -2 13 -5z m-110 -846 c-3
-8 -6 -5 -6 6 -1 11 2 17 5 13 3 -3 4 -12 1 -19z m-7 -74 c0 -8 -5 -12 -10 -9
-6 4 -8 11 -5 16 9 14 15 11 15 -7z m-239 -265 c-5 -13 -10 -19 -10 -12 -1 15
10 45 15 40 3 -2 0 -15 -5 -28z m0 -60 c-5 -13 -10 -19 -10 -12 -1 15 10 45
15 40 3 -2 0 -15 -5 -28z m-88 -46 c-7 -2 -19 -2 -25 0 -7 3 -2 5 12 5 14 0
19 -2 13 -5z"/>
<path d="M5815 5631 c-3 -6 -9 -43 -12 -82 -5 -58 -2 -83 17 -140 24 -70 24
-71 6 -132 -23 -80 -42 -265 -29 -278 15 -15 71 98 87 176 8 37 19 72 25 78
13 13 14 67 2 120 -5 21 -5 39 0 43 19 12 7 72 -29 143 -36 74 -54 92 -67 72z"/>
<path d="M2700 5610 c-9 -6 -10 -10 -3 -10 6 0 15 5 18 10 8 12 4 12 -15 0z"/>
<path d="M2756 5591 c-4 -7 -5 -15 -2 -18 9 -9 19 4 14 18 -4 11 -6 11 -12 0z"/>
<path d="M6105 5581 c5 -15 3 -21 -3 -17 -6 4 -8 -2 -5 -14 3 -11 9 -17 14
-14 12 7 11 36 -2 54 -8 12 -9 10 -4 -9z"/>
<path d="M2660 5576 c0 -2 7 -7 16 -10 8 -3 12 -2 9 4 -6 10 -25 14 -25 6z"/>
<path d="M6130 5548 c0 -9 5 -20 10 -23 13 -8 13 5 0 25 -8 13 -10 13 -10 -2z"/>
<path d="M6052 5529 c-7 -11 -11 -24 -8 -27 10 -9 28 15 24 32 -2 14 -5 13
-16 -5z"/>
<path d="M6163 5394 c0 -17 2 -22 7 -13 5 6 6 18 3 26 -8 19 -10 16 -10 -13z"/>
<path d="M6176 5354 c-3 -8 -2 -12 4 -9 6 3 10 -1 10 -10 0 -9 5 -13 10 -10 6
3 10 -2 11 -12 0 -10 3 -13 6 -6 2 7 -4 24 -15 38 -16 20 -21 22 -26 9z"/>
<path d="M2643 5313 c0 -9 4 -10 14 -2 7 6 13 12 13 14 0 1 -6 2 -13 2 -8 0
-14 -6 -14 -14z"/>
<path d="M6170 5306 c0 -9 5 -16 10 -16 6 0 10 4 10 9 0 6 -4 13 -10 16 -5 3
-10 -1 -10 -9z"/>
<path d="M2600 5280 c-8 -5 -12 -12 -9 -15 4 -3 12 1 19 10 14 17 11 19 -10 5z"/>
<path d="M6200 5260 c0 -5 7 -10 16 -10 8 0 12 5 9 10 -3 6 -10 10 -16 10 -5
0 -9 -4 -9 -10z"/>
<path d="M2580 5240 c0 -5 5 -10 11 -10 5 0 7 5 4 10 -3 6 -8 10 -11 10 -2 0
-4 -4 -4 -10z"/>
<path d="M2613 5209 c20 -12 23 -35 5 -43 -7 -3 -3 -3 9 0 19 4 22 2 17 -13
-5 -14 -4 -15 4 -4 17 24 -8 71 -37 71 -14 -1 -14 -2 2 -11z"/>
<path d="M2582 5175 c-7 -8 -9 -15 -4 -15 5 0 15 7 22 15 16 19 -1 19 -18 0z"/>
<path d="M2624 5095 c-5 -20 -11 -24 -28 -20 -15 5 -17 4 -7 -3 16 -12 -3 -27
-21 -16 -7 5 -8 3 -4 -5 5 -7 14 -10 22 -7 27 10 13 -9 -27 -38 -22 -15 -38
-30 -35 -33 3 -3 13 2 22 11 9 10 28 25 41 33 20 14 63 80 63 98 0 17 -21 1
-26 -20z"/>
<path d="M6272 5085 c0 -16 2 -22 5 -12 2 9 2 23 0 30 -3 6 -5 -1 -5 -18z"/>
<path d="M6248 5040 c-3 -22 -2 -27 8 -19 6 5 10 19 7 29 -7 27 -10 25 -15
-10z"/>
<path d="M2451 4834 c0 -11 3 -14 6 -6 3 7 2 16 -1 19 -3 4 -6 -2 -5 -13z"/>
<path d="M2518 4818 c-10 -7 -9 -8 4 -4 10 3 20 1 23 -5 4 -5 11 -6 17 -3 7 5
9 1 5 -9 -3 -10 -2 -17 3 -17 6 0 10 8 10 19 0 21 -41 34 -62 19z"/>
<path d="M2578 4727 c5 -55 18 -68 17 -17 0 22 -5 44 -11 50 -6 6 -8 -5 -6
-33z"/>
<path d="M6312 4670 c0 -14 2 -19 5 -12 2 6 2 18 0 25 -3 6 -5 1 -5 -13z"/>
<path d="M2571 4648 c1 -13 5 -34 9 -48 7 -21 8 -19 9 17 1 23 -3 45 -9 48 -6
3 -10 -4 -9 -17z"/>
<path d="M6280 4629 c-7 -11 -10 -23 -7 -25 2 -2 9 7 15 21 14 30 7 33 -8 4z"/>
<path d="M2579 4538 c-4 -16 -2 -25 3 -22 5 4 8 -7 6 -22 -2 -16 -8 -28 -14
-27 -13 2 -6 -44 8 -53 5 -3 6 6 3 23 -5 21 -4 24 4 13 9 -13 11 -13 12 3 4
51 3 75 -3 71 -4 -2 -8 6 -10 18 -3 21 -4 21 -9 -4z"/>
<path d="M6211 4448 c-33 -45 -36 -55 -21 -78 6 -10 10 -11 10 -2 0 6 6 12 14
12 10 0 12 7 8 22 -5 21 -5 21 -15 -3 -6 -15 -11 -19 -14 -11 -7 18 25 64 39
56 7 -4 8 -3 4 5 -4 6 -2 18 4 26 7 8 10 15 7 15 -3 0 -19 -19 -36 -42z"/>
<path d="M3036 4455 c-13 -34 -5 -109 20 -188 54 -173 65 -202 89 -233 14 -18
25 -45 25 -61 0 -21 15 -42 63 -88 57 -53 66 -67 81 -125 25 -91 37 -106 107
-131 45 -17 63 -29 71 -48 13 -36 37 -60 82 -83 39 -20 68 -20 154 -2 48 10
72 -16 72 -77 0 -40 4 -51 31 -73 17 -14 37 -26 44 -26 7 0 27 -8 44 -17 29
-17 33 -17 79 0 28 9 68 17 91 17 35 0 43 -4 57 -31 15 -29 19 -31 56 -26 36
5 45 2 73 -26 79 -79 167 -108 227 -76 13 7 56 12 102 11 104 -1 145 15 184
76 16 26 37 64 45 85 9 20 24 40 34 43 57 19 103 48 109 67 10 35 33 55 69 61
19 4 57 22 86 41 28 19 61 35 73 35 42 1 112 42 172 103 34 34 80 79 102 99
42 37 70 102 59 132 -13 33 -48 15 -121 -60 -71 -73 -77 -77 -157 -100 -54
-16 -105 -39 -141 -64 -50 -35 -66 -41 -130 -46 -93 -7 -127 -22 -158 -67 -20
-30 -35 -38 -87 -51 -34 -9 -78 -26 -98 -37 -34 -20 -41 -21 -88 -9 -85 20
-120 21 -166 5 -60 -21 -90 -19 -136 10 -22 13 -53 25 -70 25 -33 0 -114 70
-140 120 -16 32 -60 50 -117 50 -33 0 -45 6 -71 35 -35 40 -53 42 -134 19 -54
-16 -55 -16 -104 10 -27 14 -64 28 -82 31 -44 9 -63 25 -81 71 -10 23 -31 49
-54 64 -60 41 -132 111 -178 176 -24 34 -44 65 -44 69 0 4 -16 38 -35 76 -19
37 -42 97 -51 133 -17 70 -46 110 -58 81z"/>
<path d="M6262 4431 c-11 -7 -10 -9 3 -14 11 -5 14 -3 9 5 -5 8 -2 9 10 5 10
-4 15 -3 11 3 -7 12 -16 12 -33 1z"/>
<path d="M2590 4363 c0 -21 3 -24 9 -14 5 8 7 20 4 28 -8 21 -13 15 -13 -14z"/>
<path d="M2610 4311 c0 -17 4 -32 8 -35 4 -2 6 11 4 30 -5 42 -12 45 -12 5z"/>
<path d="M3384 4275 c-14 -35 51 -131 107 -161 21 -11 32 -26 40 -60 12 -46
28 -60 104 -90 17 -7 63 -26 104 -43 78 -33 132 -39 150 -18 11 15 -6 34 -83
93 -82 62 -101 74 -123 74 -14 0 -37 18 -64 50 -23 28 -54 53 -68 57 -13 3
-51 30 -83 60 -61 56 -75 62 -84 38z"/>
<path d="M2591 4234 c0 -11 3 -14 6 -6 3 7 2 16 -1 19 -3 4 -6 -2 -5 -13z"/>
<path d="M2660 4009 c0 -5 5 -7 10 -4 6 3 10 8 10 11 0 2 -4 4 -10 4 -5 0 -10
-5 -10 -11z"/>
<path d="M2690 4000 c0 -5 5 -10 11 -10 5 0 7 5 4 10 -3 6 -8 10 -11 10 -2 0
-4 -4 -4 -10z"/>
<path d="M4037 3865 c-9 -9 -17 -20 -17 -25 0 -22 41 -52 95 -70 33 -12 74
-28 91 -37 27 -14 43 -15 110 -5 76 10 78 10 111 -15 l34 -26 77 17 c82 19
126 40 120 58 -3 7 -48 12 -123 12 -109 2 -125 4 -172 29 -37 19 -67 27 -104
27 -36 0 -60 6 -81 22 -41 28 -118 36 -141 13z"/>
<path d="M2906 3795 c-8 -8 -32 -16 -53 -16 l-38 -2 35 -7 c29 -6 31 -8 10 -9
-14 -2 -19 -5 -11 -8 7 -3 30 4 50 15 37 21 37 21 54 2 16 -19 15 -21 -5 -40
-26 -24 -17 -26 17 -4 13 9 30 14 37 11 8 -4 7 -6 -4 -6 -16 -1 -16 -5 4 -46
21 -44 52 -71 42 -37 -5 15 -4 15 6 0 8 -13 8 -23 0 -37 -12 -24 -13 -41 0
-21 7 12 11 10 19 -10 5 -14 10 -19 10 -12 1 7 6 10 11 7 6 -4 8 -10 5 -15 -5
-7 24 -38 32 -32 1 1 6 2 11 2 4 0 1 -4 -7 -9 -11 -7 -7 -13 17 -25 35 -18 55
-21 32 -5 -12 8 -10 9 8 4 34 -10 27 0 -27 35 -28 17 -56 45 -63 61 -11 25
-14 26 -21 11 -4 -9 -5 -1 -2 21 3 20 2 37 -3 37 -5 0 -7 12 -5 28 4 30 -13
53 -68 95 -40 30 -70 34 -93 12z m259 -285 c3 -5 2 -10 -4 -10 -5 0 -13 5 -16
10 -3 6 -2 10 4 10 5 0 13 -4 16 -10z"/>
<path d="M2924 3751 c-5 -5 -22 -11 -39 -14 -27 -4 -27 -4 7 -6 20 0 40 4 43
10 9 14 1 21 -11 10z"/>
<path d="M3191 3473 l-22 -18 21 -18 c19 -16 21 -16 18 -1 -2 9 2 19 9 21 7 3
9 -3 6 -16 -3 -12 -1 -21 5 -21 6 0 13 8 15 18 3 11 5 9 6 -8 0 -14 10 -32 21
-40 13 -10 18 -21 14 -35 -4 -16 -3 -17 5 -5 9 13 11 13 11 -3 0 -10 12 -22
26 -28 42 -15 42 0 2 33 -21 16 -38 36 -38 44 0 8 -4 14 -10 14 -5 0 -10 6
-10 13 0 14 -41 67 -52 67 -3 0 -15 -8 -27 -17z"/>
<path d="M5495 3314 c-5 -1 -23 -5 -38 -8 -15 -4 -25 -10 -22 -15 2 -5 -3 -12
-12 -15 -15 -6 -15 -8 -3 -16 8 -5 11 -12 7 -16 -9 -9 -38 16 -32 26 3 5 -8 2
-25 -6 -41 -21 -55 -48 -33 -65 14 -12 15 -11 9 8 -5 16 -2 25 14 33 12 6 24
9 27 6 3 -3 -2 -8 -11 -12 -9 -3 -16 -11 -16 -16 0 -6 7 -5 15 2 9 7 25 13 38
14 12 1 22 7 22 16 0 22 27 50 48 50 17 0 19 -5 13 -32 -4 -26 -3 -29 5 -15
12 21 8 65 -6 61z"/>
<path d="M3366 3302 c-3 -6 -3 -17 0 -26 5 -13 9 -14 20 -5 11 9 14 8 14 -4 0
-9 10 -23 22 -31 37 -26 33 -8 -9 35 -23 23 -43 37 -47 31z"/>
<path d="M5460 3216 c7 -7 13 -7 20 0 6 6 3 10 -10 10 -13 0 -16 -4 -10 -10z"/>
<path d="M3470 3206 c14 -18 13 -19 -4 -12 -19 7 -19 6 -1 -14 10 -11 22 -20
27 -20 16 0 8 27 -14 46 -22 19 -22 19 -8 0z"/>
<path d="M5160 3197 c-14 -8 -24 -19 -22 -25 1 -7 -4 -12 -12 -12 -8 0 -17 -7
-20 -16 -9 -23 -8 -24 13 -24 23 0 39 19 36 43 -4 20 -4 20 31 7 23 -9 25 -9
15 4 -10 12 -6 13 31 4 24 -5 50 -13 58 -17 10 -5 21 -3 29 7 12 12 11 13 -8
7 -12 -4 -21 -2 -21 4 0 6 5 11 10 11 6 0 10 5 10 12 0 6 -7 4 -18 -6 -19 -17
-82 -13 -82 5 0 13 -21 11 -50 -4z"/>
<path d="M5401 3157 c-13 -21 -12 -21 5 -5 10 10 16 20 13 22 -3 3 -11 -5 -18
-17z"/>
<path d="M5335 3130 c-28 -7 -28 -8 -5 -9 14 0 32 4 40 9 17 11 8 11 -35 0z"/>
<path d="M3540 3109 c-12 -9 -12 -10 4 -5 11 4 26 0 37 -10 21 -19 27 -6 7 14
-15 15 -28 15 -48 1z"/>
<path d="M5072 3100 c-15 -24 -16 -44 -2 -35 6 4 7 11 4 17 -5 7 -2 9 7 6 10
-4 15 1 16 13 2 25 -9 24 -25 -1z"/>
<path d="M3640 3060 c0 -5 5 -10 11 -10 5 0 7 5 4 10 -3 6 -8 10 -11 10 -2 0
-4 -4 -4 -10z"/>
<path d="M5230 3050 c-13 -8 -13 -10 2 -10 9 0 20 5 23 10 8 13 -5 13 -25 0z"/>
<path d="M5036 3033 c-4 -9 -3 -20 2 -25 6 -6 10 1 10 16 0 30 -3 32 -12 9z"/>
<path d="M3675 3030 c4 -6 11 -8 16 -5 14 9 11 15 -7 15 -8 0 -12 -5 -9 -10z"/>
<path d="M3730 2999 c0 -11 4 -18 10 -14 5 3 7 12 3 20 -7 21 -13 19 -13 -6z"/>
<path d="M3875 2936 c17 -7 32 -11 35 -9 8 7 -24 23 -45 22 -15 0 -13 -3 10
-13z"/>
<path d="M4517 2899 c7 -7 15 -10 18 -7 3 3 -2 9 -12 12 -14 6 -15 5 -6 -5z"/>
<path d="M4435 2880 c-10 -11 -16 -22 -14 -24 2 -2 12 7 22 20 22 29 17 32 -8
4z"/>
</g>
</svg>
